<?xml version="1.0" encoding="UTF-8"?>
<svg xmlns="http://www.w3.org/2000/svg" width="2080" height="510" viewBox="0 0 2080 510" role="img" aria-labelledby="title desc">
  <title id="title">Dynamic: Start Workflow Run</title>
  <desc id="desc">Evidence-backed from repos/jormungand/app/api/workflow-runs/route.ts and repos/jormungand/lib/workflow.ts.</desc>
  <defs>
    <marker id="arrow" markerWidth="10" markerHeight="10" refX="9" refY="3" orient="auto" markerUnits="strokeWidth">
      <path d="M0,0 L0,6 L9,3 z" fill="#344054" />
    </marker>
  </defs>
  <style>
    svg { background: #ffffff; font-family: Arial, Helvetica, sans-serif; }
    .diagram-title { fill: #101828; font-size: 24px; font-weight: 700; }
    .diagram-meta { fill: #667085; font-size: 13px; }
    .node { stroke: #344054; stroke-width: 1.2; }
    .node-title { fill: #101828; font-size: 14px; font-weight: 700; }
    .node-desc { fill: #344054; font-size: 12px; }
    .edge { stroke: #344054; stroke-width: 1.4; marker-end: url(#arrow); }
    .edge-label { fill: #475467; font-size: 12px; paint-order: stroke; stroke: #ffffff; stroke-width: 4px; stroke-linejoin: round; }
  </style>
  <rect class="canvas-background" width="100%" height="100%" fill="#ffffff" />
  <text class="diagram-title" x="32" y="36">Dynamic: Start Workflow Run</text>
  <text class="diagram-meta" x="32" y="58">Dynamic - Evidence-backed from repos/jormungand/app/api/workflow-runs/route.ts and repos/jormungand/lib/workflow.ts.</text>
  <g class="edges">
    <line class="edge" x1="260" y1="135" x2="380" y2="135" />
    <text class="edge-label" x="320" y="129">1. request</text>
    <line class="edge" x1="600" y1="135" x2="720" y2="135" />
    <text class="edge-label" x="660" y="129">2. POST</text>
    <line class="edge" x1="940" y1="135" x2="1060" y2="135" />
    <text class="edge-label" x="1000" y="129">3. create/advance</text>
    <line class="edge" x1="1170" y1="190" x2="1170" y2="300" />
    <text class="edge-label" x="1170" y="239">4. resolve skills</text>
    <line class="edge" x1="1280" y1="135" x2="1400" y2="135" />
    <text class="edge-label" x="1340" y="129">5. invoke</text>
    <line class="edge" x1="1620" y1="135" x2="1740" y2="135" />
    <text class="edge-label" x="1680" y="129">6. agent-runs</text>
    <line class="edge" x1="1280" y1="135" x2="1400" y2="355" />
    <text class="edge-label" x="1340" y="239">7. persist</text>
  </g>
  <g class="nodes">
    <rect class="node person" x="40" y="80" width="220" height="110" rx="8" fill="#fff4cc" />
    <text class="node-title" x="56" y="108">Operator</text>
    <text class="node-desc" x="56" y="132">Submits requirement and policy.</text>
    <rect class="node container" x="380" y="80" width="220" height="110" rx="8" fill="#e6f4ea" />
    <text class="node-title" x="396" y="108">Harness Dashboard</text>
    <text class="node-desc" x="396" y="132">Collects run request.</text>
    <rect class="node component" x="720" y="80" width="220" height="110" rx="8" fill="#eef0ff" />
    <text class="node-title" x="736" y="108">Workflow Route</text>
    <text class="node-desc" x="736" y="132">POST /api/workflow-runs.</text>
    <rect class="node container" x="1060" y="80" width="220" height="110" rx="8" fill="#e6f4ea" />
    <text class="node-title" x="1076" y="108">Workflow Engine</text>
    <text class="node-desc" x="1076" y="132">Creates and advances run.</text>
    <rect class="node component" x="1060" y="300" width="220" height="110" rx="8" fill="#eef0ff" />
    <text class="node-title" x="1076" y="328">Runtime Skill Resolver</text>
    <text class="node-desc" x="1076" y="352">Resolves runtime bundles.</text>
    <rect class="node container" x="1400" y="80" width="220" height="110" rx="8" fill="#e6f4ea" />
    <text class="node-title" x="1416" y="108">Agent Bridge</text>
    <text class="node-desc" x="1416" y="132">Invokes configured executor.</text>
    <rect class="node storage" x="1400" y="300" width="220" height="110" rx="8" fill="#f5e6ff" />
    <text class="node-title" x="1416" y="328">Workspace Store</text>
    <text class="node-desc" x="1416" y="352">Persists run and artifacts.</text>
    <rect class="node external" x="1740" y="80" width="260" height="110" rx="8" fill="#ffe3d8" />
    <text class="node-title" x="1756" y="108">Configured</text>
    <text class="node-title" x="1756" y="126">Codex/OpenClaw Bridge</text>
    <text class="node-desc" x="1756" y="150">Authenticated v0.3 agent run with</text>
    <text class="node-desc" x="1756" y="166">verified runtime skills.</text>
  </g>
</svg>
